<svg width="188" height="130" viewBox="0 0 188 130" fill="none" xmlns="http://www.w3.org/2000/svg">
<path d="M165.455 46.8591H157.337V130H165.455V46.8591Z" fill="white"/>
<path fill-rule="evenodd" clip-rule="evenodd" d="M161.302 82.4923L188 109.215H176.594L161.302 93.9093L146.199 109.215H134.604L161.302 82.4923Z" fill="white"/>
<path fill-rule="evenodd" clip-rule="evenodd" d="M161.302 59.8171L188 86.5396H176.594L161.302 71.2341L146.199 86.5396H134.604L161.302 59.8171Z" fill="white"/>
<path fill-rule="evenodd" clip-rule="evenodd" d="M161.302 37.3313L188 64.0538H176.593L161.302 48.7483L146.199 64.0538H134.604L161.302 37.3313Z" fill="white"/>
<path d="M99.1148 12.3862H88.5606V120.47H99.1148V12.3862Z" fill="white"/>
<path fill-rule="evenodd" clip-rule="evenodd" d="M93.9057 58.7089L128.613 93.4482H113.785L93.9057 73.551L74.2721 93.4482H59.198L93.9057 58.7089Z" fill="white"/>
<path fill-rule="evenodd" clip-rule="evenodd" d="M93.9057 29.2318L128.613 63.9711H113.785L93.9057 44.074L74.2721 63.9711H59.198L93.9057 29.2318Z" fill="white"/>
<path fill-rule="evenodd" clip-rule="evenodd" d="M93.906 0L128.614 34.7393H113.785L93.906 14.8422L74.2723 34.7393H59.387L93.906 0Z" fill="white"/>
<path d="M30.8516 46.8591H22.7339V130H30.8516V46.8591Z" fill="white"/>
<path fill-rule="evenodd" clip-rule="evenodd" d="M26.6981 82.4923L53.3963 109.215H41.9897L26.6981 93.9093L11.5954 109.215H0L26.6981 82.4923Z" fill="white"/>
<path fill-rule="evenodd" clip-rule="evenodd" d="M26.6981 59.8171L53.3963 86.5396H41.9897L26.6981 71.2341L11.5954 86.5396H0L26.6981 59.8171Z" fill="white"/>
<path fill-rule="evenodd" clip-rule="evenodd" d="M26.6981 37.3313L53.3963 64.0538H41.9897L26.6981 48.7483L11.5954 64.0538H0L26.6981 37.3313Z" fill="white"/>
</svg>
